<mxfile host="" modified="2020-06-10T11:30:55.397Z" agent="5.0 (X11; Linux x86_64) AppleWebKit/537.36 (KHTML, like Gecko) Code/1.45.1 Chrome/78.0.3904.130 Electron/7.2.4 Safari/537.36" etag="M7n_ECy433ME4MAL7pAR" version="13.1.3">
    <diagram id="6hGFLwfOUW9BJ-s0fimq" name="Page-1">
        <mxGraphModel dx="1702" dy="1131" grid="1" gridSize="10" guides="1" tooltips="1" connect="1" arrows="1" fold="1" page="1" pageScale="1" pageWidth="827" pageHeight="1169" math="0" shadow="0">
            <root>
                <mxCell id="0"/>
                <mxCell id="1" parent="0"/>
                <mxCell id="3" value="leaf 1" style="shape=umlFrame;whiteSpace=wrap;html=1;" vertex="1" parent="1">
                    <mxGeometry x="120" y="380" width="520" height="320" as="geometry"/>
                </mxCell>
                <mxCell id="17" style="edgeStyle=orthogonalEdgeStyle;rounded=0;orthogonalLoop=1;jettySize=auto;html=1;exitX=0.75;exitY=1;exitDx=0;exitDy=0;entryX=0.5;entryY=0;entryDx=0;entryDy=0;fontColor=#FFFFFF;endArrow=none;endFill=0;" edge="1" parent="1" source="7" target="14">
                    <mxGeometry relative="1" as="geometry">
                        <Array as="points">
                            <mxPoint x="253" y="520"/>
                            <mxPoint x="545" y="520"/>
                        </Array>
                    </mxGeometry>
                </mxCell>
                <mxCell id="21" value="" style="edgeStyle=orthogonalEdgeStyle;rounded=0;orthogonalLoop=1;jettySize=auto;html=1;fontColor=#FFFFFF;entryX=0.5;entryY=0;entryDx=0;entryDy=0;endArrow=none;endFill=0;" edge="1" parent="1" source="7" target="9">
                    <mxGeometry relative="1" as="geometry">
                        <mxPoint x="225" y="560" as="targetPoint"/>
                    </mxGeometry>
                </mxCell>
                <mxCell id="7" value="«VLAN aware»&lt;br&gt;&lt;b&gt;Bridge&lt;/b&gt;" style="html=1;" vertex="1" parent="1">
                    <mxGeometry x="170" y="430" width="110" height="50" as="geometry"/>
                </mxCell>
                <mxCell id="8" value="lo: 10.0.0.41" style="shape=note;whiteSpace=wrap;html=1;size=14;verticalAlign=middle;align=left;spacingTop=-6;fillColor=#e3c800;strokeColor=#B09500;fontColor=#000000;" vertex="1" parent="1">
                    <mxGeometry x="510" y="435" width="100" height="40" as="geometry"/>
                </mxCell>
                <mxCell id="9" value="&lt;font color=&quot;#ffffff&quot;&gt;vni104001&lt;br&gt;&lt;br&gt;VXLAN-Interface&lt;br&gt;VTEP-Endpoint: 10.0.0.41&lt;br&gt;&lt;/font&gt;" style="html=1;fontColor=#000000;align=center;labelPosition=center;verticalLabelPosition=middle;verticalAlign=middle;" vertex="1" parent="1">
                    <mxGeometry x="150" y="600" width="150" height="80" as="geometry"/>
                </mxCell>
                <mxCell id="12" value="vrf 104001" style="shape=umlFrame;whiteSpace=wrap;html=1;fontColor=#FFFFFF;align=left;width=70;height=30;" vertex="1" parent="1">
                    <mxGeometry x="350" y="540" width="270" height="140" as="geometry"/>
                </mxCell>
                <mxCell id="18" style="edgeStyle=orthogonalEdgeStyle;rounded=0;orthogonalLoop=1;jettySize=auto;html=1;exitX=0.5;exitY=1;exitDx=0;exitDy=0;entryX=0.5;entryY=0;entryDx=0;entryDy=0;fontColor=#FFFFFF;endArrow=none;endFill=0;" edge="1" parent="1" source="13" target="16">
                    <mxGeometry relative="1" as="geometry"/>
                </mxCell>
                <mxCell id="13" value="swp1" style="html=1;fontColor=#FFFFFF;align=center;" vertex="1" parent="1">
                    <mxGeometry x="370" y="615" width="60" height="50" as="geometry"/>
                </mxCell>
                <mxCell id="14" value="«SVI»&lt;br&gt;&lt;b&gt;vlan4001&lt;/b&gt;" style="html=1;" vertex="1" parent="1">
                    <mxGeometry x="490" y="615" width="110" height="50" as="geometry"/>
                </mxCell>
                <mxCell id="16" value="Device 1" style="html=1;fontColor=#FFFFFF;align=center;" vertex="1" parent="1">
                    <mxGeometry x="345" y="760" width="110" height="50" as="geometry"/>
                </mxCell>
            </root>
        </mxGraphModel>
    </diagram>
</mxfile>